<svg version="1.1" id="Layer_1" xmlns="http://www.w3.org/2000/svg" xmlns:xlink="http://www.w3.org/1999/xlink" x="0px" y="0px"
	 width="100%" viewBox="0 0 2000 1500" enable-background="new 0 0 2000 1500" xml:space="preserve">
<path fill="#FFFFFF" opacity="1.000000" stroke="none" 
	d="
M1223.000000,1501.000000 
	C815.333435,1501.000000 408.166901,1501.000000 1.000273,1501.000000 
	C1.000182,1001.000244 1.000182,501.000549 1.000091,1.000608 
	C667.666199,1.000406 1334.332397,1.000406 2000.998901,1.000203 
	C2000.999268,500.999390 2000.999268,1000.998779 2000.999634,1500.999023 
	C1741.833374,1501.000000 1482.666626,1501.000000 1223.000000,1501.000000 
M660.930786,797.449707 
	C662.675049,782.433533 665.905334,767.417847 665.910156,752.401123 
	C665.933105,681.639832 637.052795,624.749878 580.318481,582.720520 
	C544.672607,556.313721 504.222351,543.733582 459.463562,543.747314 
	C423.944550,543.758179 390.783722,551.613953 359.931610,568.655518 
	C281.348541,612.062012 240.246017,696.902283 255.031464,785.438538 
	C263.578949,836.621460 288.509003,878.781250 328.800140,911.362000 
	C366.719513,942.024902 410.132172,957.358826 459.309448,957.232788 
	C491.467407,957.150330 521.866882,950.826050 550.361206,936.411438 
	C608.053833,907.225952 644.725098,860.906311 660.930786,797.449707 
M1054.903931,791.604126 
	C1065.400391,799.501465 1077.277710,802.220642 1090.204712,801.045715 
	C1103.310913,799.854614 1113.600098,793.626953 1122.240234,781.831238 
	C1122.240234,789.007507 1122.240234,794.544556 1122.240234,800.095093 
	C1126.687622,800.095093 1130.602661,800.095093 1134.551758,800.095093 
	C1134.551758,754.674438 1134.551758,709.597717 1134.551758,664.255249 
	C1130.227783,664.255249 1126.146118,664.255249 1121.578613,664.255249 
	C1121.578613,673.673767 1121.578491,682.970947 1121.578491,692.268066 
	C1121.578491,701.444153 1121.578613,710.620300 1121.578613,719.918884 
	C1120.525146,719.742188 1120.335449,719.767456 1120.240234,719.684326 
	C1119.865112,719.356628 1119.486572,719.022461 1119.167603,718.641907 
	C1106.449707,703.471252 1089.958740,700.213318 1071.719116,704.660522 
	C1053.597290,709.079041 1042.099976,721.108704 1038.186890,739.230530 
	C1033.858276,759.276306 1037.948120,777.278931 1054.903931,791.604126 
M1193.897095,779.743713 
	C1187.814941,775.145569 1184.305298,768.866455 1183.977539,761.440796 
	C1183.346191,747.140564 1183.366089,732.811035 1183.158081,718.492981 
	C1183.088501,713.703369 1183.147217,708.911804 1183.147217,704.051392 
	C1178.553589,704.051392 1174.463989,704.051392 1170.253052,704.051392 
	C1170.253052,723.008301 1169.787720,741.671753 1170.408569,760.299011 
	C1170.859619,773.832947 1176.417725,785.186401 1189.042969,791.864319 
	C1203.696655,799.615051 1229.904541,799.703552 1243.198975,782.079163 
	C1243.517822,781.656555 1244.047974,781.393433 1244.805908,780.800964 
	C1244.805908,786.872864 1245.303345,792.381653 1244.712769,797.771240 
	C1242.924683,814.090820 1235.337158,822.804749 1220.788818,824.689331 
	C1214.765259,825.469666 1208.462524,825.077576 1202.397217,824.327271 
	C1192.982422,823.162598 1184.795288,818.784851 1177.422485,812.293274 
	C1175.068970,815.844055 1172.997559,818.969238 1170.733521,822.385071 
	C1186.621338,835.276001 1204.396362,838.893005 1223.654297,836.169617 
	C1242.189209,833.548462 1252.636963,823.689819 1256.577881,805.565308 
	C1257.491211,801.364929 1257.989380,796.991089 1258.012085,792.693604 
	C1258.163330,764.034241 1258.137329,735.373901 1258.145630,706.713928 
	C1258.145874,705.798096 1257.892456,704.882080 1257.759155,703.979736 
	C1253.436890,703.979736 1249.479492,703.979736 1245.095581,703.979736 
	C1245.095581,706.012390 1245.097778,707.810242 1245.095337,709.608032 
	C1245.075806,723.937988 1245.309692,738.273804 1244.980591,752.596619 
	C1244.362793,779.469910 1217.768677,793.894836 1193.897095,779.743713 
M1460.443115,793.983459 
	C1463.694336,791.291931 1466.945435,788.600464 1470.362671,785.771423 
	C1467.457642,782.530212 1465.148438,779.953674 1462.821899,777.357910 
	C1448.842407,790.456604 1433.099976,792.974670 1415.941650,786.169495 
	C1406.218872,782.313354 1400.112183,774.834900 1396.798706,764.599548 
	C1423.681885,759.359436 1449.755005,754.277222 1475.704956,749.219055 
	C1476.812378,732.794128 1466.601440,715.207642 1451.113525,707.939880 
	C1433.209229,699.538147 1415.487793,700.745300 1399.852661,713.004700 
	C1383.181396,726.076599 1379.040771,744.355591 1383.399658,764.259094 
	C1387.641846,783.629456 1400.523804,795.501465 1419.735229,799.872070 
	C1433.613647,803.029419 1447.207520,801.684204 1460.443115,793.983459 
M1721.444946,754.790955 
	C1730.885742,752.911682 1740.326416,751.032410 1750.146362,749.077698 
	C1749.216309,732.674438 1743.264282,719.151245 1729.372192,710.440735 
	C1712.683105,699.976379 1695.071777,699.895691 1678.272095,709.904663 
	C1660.262207,720.634644 1654.321167,737.960327 1656.267090,757.931213 
	C1658.159180,777.350342 1668.705933,790.885559 1687.055664,797.996460 
	C1696.462402,801.641785 1706.283081,802.111755 1716.097534,800.601868 
	C1727.024780,798.920776 1736.653198,794.486328 1743.862305,785.358459 
	C1741.360229,782.523499 1739.070312,779.928772 1736.756104,777.306641 
	C1716.855469,798.680237 1677.103149,791.149536 1671.243530,764.487854 
	C1687.701538,761.298218 1704.151978,758.109985 1721.444946,754.790955 
M934.924072,752.482666 
	C934.924072,736.386475 934.924072,720.290283 934.924072,704.190796 
	C930.240845,704.190796 926.188782,704.190796 922.111816,704.190796 
	C922.111816,725.359070 921.513489,746.178345 922.320007,766.943115 
	C922.866882,781.023254 929.927551,791.968506 943.385010,797.765930 
	C952.518311,801.700500 962.142944,802.135498 971.812500,800.464844 
	C982.202148,798.669861 990.393982,793.093628 997.367676,783.208496 
	C997.367676,789.889343 997.367676,794.939026 997.367676,800.120056 
	C1001.810425,800.120056 1005.727478,800.120056 1009.594299,800.120056 
	C1009.594299,767.912659 1009.594299,736.016479 1009.594299,704.223022 
	C1005.192566,704.223022 1001.138062,704.223022 996.871338,704.223022 
	C996.871338,706.447205 996.872131,708.267639 996.871277,710.088013 
	C996.864380,725.076660 997.086670,740.069641 996.801819,755.053040 
	C996.232605,784.996765 974.140076,792.963684 953.968628,788.197510 
	C945.156311,786.115356 939.083435,780.456909 936.936646,771.717163 
	C935.489746,765.826599 935.542236,759.567810 934.924072,752.482666 
M784.179932,745.591370 
	C779.653625,744.011047 774.792175,743.026733 770.678284,740.713074 
	C764.247864,737.096497 762.729736,728.899109 766.769348,722.897949 
	C770.179993,717.831238 775.386047,715.791016 781.165710,714.925781 
	C794.281372,712.962219 806.641846,715.072632 818.352478,722.360596 
	C820.275940,718.801208 822.047607,715.522766 824.002808,711.904785 
	C810.140442,703.968750 795.566162,701.284180 780.429626,703.796204 
	C773.773682,704.900757 766.945496,707.664368 761.266907,711.333008 
	C752.605408,716.928833 750.307556,725.994019 752.006714,735.984802 
	C753.544250,745.025024 759.603394,750.190430 767.717041,753.093994 
	C772.543152,754.821045 777.641907,755.793457 782.629272,757.061096 
	C790.665894,759.103760 799.078491,760.221741 806.662537,763.352600 
	C816.522583,767.422913 816.862915,780.049255 807.713379,785.683105 
	C804.965210,787.375305 801.620850,788.439026 798.412354,788.986755 
	C782.472656,791.707458 767.730469,788.289490 753.797058,779.245667 
	C751.843384,782.689941 749.994324,785.949890 748.177368,789.153259 
	C763.583435,802.453674 797.588440,805.417175 814.663879,795.193970 
	C824.481750,789.315979 828.456543,780.609375 826.957581,769.445374 
	C825.576050,759.156128 818.438232,753.879211 809.313477,751.241577 
	C801.347290,748.938843 793.109497,747.575806 784.179932,745.591370 
M1594.101074,715.073547 
	C1607.692261,712.907043 1620.569946,714.791626 1632.627319,722.350464 
	C1634.610474,718.712769 1636.398926,715.431885 1638.157471,712.206177 
	C1627.229614,704.800598 1608.777710,701.310669 1594.469727,703.565613 
	C1586.928711,704.754028 1579.924927,707.061890 1574.092041,712.214050 
	C1560.665161,724.073669 1563.588501,745.056885 1579.959839,752.214966 
	C1585.229736,754.519165 1591.075317,755.540833 1596.695923,757.001343 
	C1604.724487,759.087646 1612.904785,760.672729 1620.793579,763.184021 
	C1625.487305,764.678284 1628.331787,768.473999 1628.377930,773.850525 
	C1628.425171,779.360840 1626.251709,783.652100 1621.322388,786.098022 
	C1618.539795,787.478760 1615.460938,788.531677 1612.400635,789.038086 
	C1596.594482,791.653992 1582.002686,788.233704 1568.104370,779.267761 
	C1566.183105,782.617065 1564.320557,785.863892 1562.233765,789.501709 
	C1565.019653,791.232361 1567.284546,792.926331 1569.781860,794.143311 
	C1583.856934,801.002319 1598.787842,803.066223 1614.035156,800.146790 
	C1620.374512,798.933044 1626.824829,796.220337 1632.224121,792.668335 
	C1640.119263,787.474426 1642.460815,779.137817 1641.306885,769.813904 
	C1640.166504,760.598450 1634.310059,755.358398 1626.289185,752.161011 
	C1622.609375,750.694214 1618.651489,749.883911 1614.776245,748.957397 
	C1606.209229,746.909180 1597.503906,745.351135 1589.069702,742.864868 
	C1583.377197,741.186768 1579.181152,737.355347 1578.973633,730.668030 
	C1578.781738,724.480835 1582.053467,719.709473 1588.567627,716.883606 
	C1590.087769,716.224121 1591.701538,715.780457 1594.101074,715.073547 
M1291.091919,705.277649 
	C1286.591187,704.562866 1282.090576,703.848145 1276.582642,702.973450 
	C1277.571167,705.388306 1277.964600,706.421997 1278.411743,707.432007 
	C1291.404663,736.776855 1304.623901,766.025146 1317.215820,795.540955 
	C1319.761963,801.509277 1323.794067,800.044067 1328.016602,800.511597 
	C1332.073486,800.960876 1333.755005,799.226807 1335.319458,795.653809 
	C1346.989868,768.998169 1358.915771,742.454468 1370.747681,715.869446 
	C1372.463013,712.015442 1374.103516,708.128174 1376.002808,703.738342 
	C1373.480835,703.738342 1371.632080,703.978943 1369.868896,703.692688 
	C1364.815186,702.872131 1362.386475,704.931519 1360.337769,709.712891 
	C1350.121948,733.553894 1339.436279,757.193604 1328.905396,780.899475 
	C1328.275146,782.318054 1327.553101,783.695923 1326.554810,785.748901 
	C1314.600220,758.613647 1303.005859,732.295898 1291.091919,705.277649 
M866.885559,784.475037 
	C865.794800,779.872559 863.880249,775.290833 863.763428,770.663757 
	C863.368530,755.024475 863.611084,739.369141 863.610107,723.719910 
	C863.609924,720.940857 863.610107,718.161865 863.610107,714.835938 
	C873.544800,714.835938 882.942383,714.835938 892.575439,714.835938 
	C892.575439,710.893372 892.575439,707.507690 892.575439,703.562866 
	C882.909302,703.562866 873.515747,703.562866 863.521667,703.562866 
	C863.521667,696.289673 863.521667,689.561768 863.521667,682.807373 
	C858.834106,682.807373 854.770020,682.807373 850.331116,682.807373 
	C850.331116,684.969727 850.331055,686.775208 850.331055,688.580627 
	C850.331116,714.218689 850.320679,739.856689 850.342468,765.494751 
	C850.345703,769.320496 850.298401,773.163330 850.623657,776.968445 
	C851.513428,787.377930 855.917358,795.683838 866.271790,799.214294 
	C877.722656,803.118591 888.779663,802.216370 899.064087,794.606262 
	C897.473206,791.402039 896.039612,788.514526 894.606934,785.629028 
	C882.533569,791.822205 874.516235,791.571411 866.885559,784.475037 
M1515.895996,797.129639 
	C1515.920654,780.638611 1515.721558,764.143372 1516.032959,747.657715 
	C1516.343262,731.235352 1525.273193,719.608154 1539.623047,716.466736 
	C1543.306030,715.660522 1547.164307,715.655151 1551.143311,715.261963 
	C1551.143311,711.242737 1551.143311,707.235046 1551.143311,702.969055 
	C1536.151733,703.041443 1523.858032,707.615601 1514.890503,720.192200 
	C1514.890503,714.800293 1514.890503,709.408386 1514.890503,704.172119 
	C1510.632446,704.172119 1506.886841,704.172119 1503.220581,704.172119 
	C1503.220581,736.386658 1503.220581,768.245911 1503.220581,800.426331 
	C1506.755981,800.426331 1509.921875,800.617798 1513.040283,800.316711 
	C1514.054688,800.218750 1514.944824,798.834412 1515.895996,797.129639 
z"/>
<path fill="#015C97" opacity="1.000000" stroke="none" 
	d="
M660.851990,797.859497 
	C644.725098,860.906311 608.053833,907.225952 550.361206,936.411438 
	C521.866882,950.826050 491.467407,957.150330 459.309448,957.232788 
	C410.132172,957.358826 366.719513,942.024902 328.800140,911.362000 
	C288.509003,878.781250 263.578949,836.621460 255.031464,785.438538 
	C240.246017,696.902283 281.348541,612.062012 359.931610,568.655518 
	C390.783722,551.613953 423.944550,543.758179 459.463562,543.747314 
	C504.222351,543.733582 544.672607,556.313721 580.318481,582.720520 
	C637.052795,624.749878 665.933105,681.639832 665.910156,752.401123 
	C665.905334,767.417847 662.675049,782.433533 660.851990,797.859497 
M361.826172,768.500000 
	C361.826324,788.158142 361.800171,807.816284 361.833527,827.474365 
	C361.871460,849.824524 376.028290,864.030762 398.269257,864.040405 
	C438.751648,864.058044 479.234039,864.056213 519.716431,864.041565 
	C542.249573,864.033447 556.459656,849.880493 556.487793,827.196838 
	C556.551208,776.052490 556.553284,724.907898 556.486694,673.763550 
	C556.457153,651.073486 542.261047,636.966248 519.687317,636.958252 
	C479.371521,636.944031 439.047638,637.432800 398.743317,636.752808 
	C378.545532,636.412109 361.105591,651.745117 361.638794,674.045166 
	C362.383270,705.180481 361.826233,736.346863 361.826172,768.500000 
z"/>
<path fill="#FF8214" opacity="1.000000" stroke="none" 
	d="
M1054.626953,791.380005 
	C1037.948120,777.278931 1033.858276,759.276306 1038.186890,739.230530 
	C1042.099976,721.108704 1053.597290,709.079041 1071.719116,704.660522 
	C1089.958740,700.213318 1106.449707,703.471252 1119.167603,718.641907 
	C1119.486572,719.022461 1119.865112,719.356628 1120.240234,719.684326 
	C1120.335449,719.767456 1120.525146,719.742188 1121.578613,719.918884 
	C1121.578613,710.620300 1121.578491,701.444153 1121.578491,692.268066 
	C1121.578491,682.970947 1121.578613,673.673767 1121.578613,664.255249 
	C1126.146118,664.255249 1130.227783,664.255249 1134.551758,664.255249 
	C1134.551758,709.597717 1134.551758,754.674438 1134.551758,800.095093 
	C1130.602661,800.095093 1126.687622,800.095093 1122.240234,800.095093 
	C1122.240234,794.544556 1122.240234,789.007507 1122.240234,781.831238 
	C1113.600098,793.626953 1103.310913,799.854614 1090.204712,801.045715 
	C1077.277710,802.220642 1065.400391,799.501465 1054.626953,791.380005 
M1054.310425,733.003479 
	C1046.327393,750.365295 1049.499878,770.549072 1062.246338,781.233582 
	C1073.308228,790.505981 1086.041626,792.122559 1099.296997,787.223145 
	C1113.453247,781.990601 1119.879150,770.689087 1121.638184,756.207520 
	C1123.786621,738.517456 1113.980835,721.720947 1098.242798,716.356873 
	C1081.135620,710.526245 1063.877319,716.875122 1054.310425,733.003479 
z"/>
<path fill="#FF8112" opacity="1.000000" stroke="none" 
	d="
M1194.204834,779.946045 
	C1217.768677,793.894836 1244.362793,779.469910 1244.980591,752.596619 
	C1245.309692,738.273804 1245.075806,723.937988 1245.095337,709.608032 
	C1245.097778,707.810242 1245.095581,706.012390 1245.095581,703.979736 
	C1249.479492,703.979736 1253.436890,703.979736 1257.759155,703.979736 
	C1257.892456,704.882080 1258.145874,705.798096 1258.145630,706.713928 
	C1258.137329,735.373901 1258.163330,764.034241 1258.012085,792.693604 
	C1257.989380,796.991089 1257.491211,801.364929 1256.577881,805.565308 
	C1252.636963,823.689819 1242.189209,833.548462 1223.654297,836.169617 
	C1204.396362,838.893005 1186.621338,835.276001 1170.733521,822.385071 
	C1172.997559,818.969238 1175.068970,815.844055 1177.422485,812.293274 
	C1184.795288,818.784851 1192.982422,823.162598 1202.397217,824.327271 
	C1208.462524,825.077576 1214.765259,825.469666 1220.788818,824.689331 
	C1235.337158,822.804749 1242.924683,814.090820 1244.712769,797.771240 
	C1245.303345,792.381653 1244.805908,786.872864 1244.805908,780.800964 
	C1244.047974,781.393433 1243.517822,781.656555 1243.198975,782.079163 
	C1229.904541,799.703552 1203.696655,799.615051 1189.042969,791.864319 
	C1176.417725,785.186401 1170.859619,773.832947 1170.408569,760.299011 
	C1169.787720,741.671753 1170.253052,723.008301 1170.253052,704.051392 
	C1174.463989,704.051392 1178.553589,704.051392 1183.147217,704.051392 
	C1183.147217,708.911804 1183.088501,713.703369 1183.158081,718.492981 
	C1183.366089,732.811035 1183.346191,747.140564 1183.977539,761.440796 
	C1184.305298,768.866455 1187.814941,775.145569 1194.204834,779.946045 
z"/>
<path fill="#FF8113" opacity="1.000000" stroke="none" 
	d="
M1460.123047,794.161621 
	C1447.207520,801.684204 1433.613647,803.029419 1419.735229,799.872070 
	C1400.523804,795.501465 1387.641846,783.629456 1383.399658,764.259094 
	C1379.040771,744.355591 1383.181396,726.076599 1399.852661,713.004700 
	C1415.487793,700.745300 1433.209229,699.538147 1451.113525,707.939880 
	C1466.601440,715.207642 1476.812378,732.794128 1475.704956,749.219055 
	C1449.755005,754.277222 1423.681885,759.359436 1396.798706,764.599548 
	C1400.112183,774.834900 1406.218872,782.313354 1415.941650,786.169495 
	C1433.099976,792.974670 1448.842407,790.456604 1462.821899,777.357910 
	C1465.148438,779.953674 1467.457642,782.530212 1470.362671,785.771423 
	C1466.945435,788.600464 1463.694336,791.291931 1460.123047,794.161621 
M1434.019165,747.605774 
	C1443.614868,745.712463 1453.210693,743.819153 1462.795898,741.927979 
	C1459.214844,722.133484 1442.151367,711.091553 1421.766479,715.014587 
	C1404.124878,718.409729 1391.691895,737.213257 1395.517456,754.993347 
	C1408.070801,752.597717 1420.630249,750.200928 1434.019165,747.605774 
z"/>
<path fill="#FF8113" opacity="1.000000" stroke="none" 
	d="
M1721.023682,754.856323 
	C1704.151978,758.109985 1687.701538,761.298218 1671.243530,764.487854 
	C1677.103149,791.149536 1716.855469,798.680237 1736.756104,777.306641 
	C1739.070312,779.928772 1741.360229,782.523499 1743.862305,785.358459 
	C1736.653198,794.486328 1727.024780,798.920776 1716.097534,800.601868 
	C1706.283081,802.111755 1696.462402,801.641785 1687.055664,797.996460 
	C1668.705933,790.885559 1658.159180,777.350342 1656.267090,757.931213 
	C1654.321167,737.960327 1660.262207,720.634644 1678.272095,709.904663 
	C1695.071777,699.895691 1712.683105,699.976379 1729.372192,710.440735 
	C1743.264282,719.151245 1749.216309,732.674438 1750.146362,749.077698 
	C1740.326416,751.032410 1730.885742,752.911682 1721.023682,754.856323 
M1694.950562,715.133972 
	C1675.267334,719.605408 1665.811157,740.522583 1669.745728,754.999939 
	C1692.120605,750.639221 1714.507690,746.276001 1736.925171,741.906921 
	C1731.900879,721.241089 1716.958862,711.713196 1694.950562,715.133972 
z"/>
<path fill="#FF8112" opacity="1.000000" stroke="none" 
	d="
M934.924011,752.978210 
	C935.542236,759.567810 935.489746,765.826599 936.936646,771.717163 
	C939.083435,780.456909 945.156311,786.115356 953.968628,788.197510 
	C974.140076,792.963684 996.232605,784.996765 996.801819,755.053040 
	C997.086670,740.069641 996.864380,725.076660 996.871277,710.088013 
	C996.872131,708.267639 996.871338,706.447205 996.871338,704.223022 
	C1001.138062,704.223022 1005.192566,704.223022 1009.594299,704.223022 
	C1009.594299,736.016479 1009.594299,767.912659 1009.594299,800.120056 
	C1005.727478,800.120056 1001.810425,800.120056 997.367676,800.120056 
	C997.367676,794.939026 997.367676,789.889343 997.367676,783.208496 
	C990.393982,793.093628 982.202148,798.669861 971.812500,800.464844 
	C962.142944,802.135498 952.518311,801.700500 943.385010,797.765930 
	C929.927551,791.968506 922.866882,781.023254 922.320007,766.943115 
	C921.513489,746.178345 922.111816,725.359070 922.111816,704.190796 
	C926.188782,704.190796 930.240845,704.190796 934.924072,704.190796 
	C934.924072,720.290283 934.924072,736.386475 934.924011,752.978210 
z"/>
<path fill="#FF8113" opacity="1.000000" stroke="none" 
	d="
M784.585815,745.694458 
	C793.109497,747.575806 801.347290,748.938843 809.313477,751.241577 
	C818.438232,753.879211 825.576050,759.156128 826.957581,769.445374 
	C828.456543,780.609375 824.481750,789.315979 814.663879,795.193970 
	C797.588440,805.417175 763.583435,802.453674 748.177368,789.153259 
	C749.994324,785.949890 751.843384,782.689941 753.797058,779.245667 
	C767.730469,788.289490 782.472656,791.707458 798.412354,788.986755 
	C801.620850,788.439026 804.965210,787.375305 807.713379,785.683105 
	C816.862915,780.049255 816.522583,767.422913 806.662537,763.352600 
	C799.078491,760.221741 790.665894,759.103760 782.629272,757.061096 
	C777.641907,755.793457 772.543152,754.821045 767.717041,753.093994 
	C759.603394,750.190430 753.544250,745.025024 752.006714,735.984802 
	C750.307556,725.994019 752.605408,716.928833 761.266907,711.333008 
	C766.945496,707.664368 773.773682,704.900757 780.429626,703.796204 
	C795.566162,701.284180 810.140442,703.968750 824.002808,711.904785 
	C822.047607,715.522766 820.275940,718.801208 818.352478,722.360596 
	C806.641846,715.072632 794.281372,712.962219 781.165710,714.925781 
	C775.386047,715.791016 770.179993,717.831238 766.769348,722.897949 
	C762.729736,728.899109 764.247864,737.096497 770.678284,740.713074 
	C774.792175,743.026733 779.653625,744.011047 784.585815,745.694458 
z"/>
<path fill="#FF8113" opacity="1.000000" stroke="none" 
	d="
M1593.686646,715.155518 
	C1591.701538,715.780457 1590.087769,716.224121 1588.567627,716.883606 
	C1582.053467,719.709473 1578.781738,724.480835 1578.973633,730.668030 
	C1579.181152,737.355347 1583.377197,741.186768 1589.069702,742.864868 
	C1597.503906,745.351135 1606.209229,746.909180 1614.776245,748.957397 
	C1618.651489,749.883911 1622.609375,750.694214 1626.289185,752.161011 
	C1634.310059,755.358398 1640.166504,760.598450 1641.306885,769.813904 
	C1642.460815,779.137817 1640.119263,787.474426 1632.224121,792.668335 
	C1626.824829,796.220337 1620.374512,798.933044 1614.035156,800.146790 
	C1598.787842,803.066223 1583.856934,801.002319 1569.781860,794.143311 
	C1567.284546,792.926331 1565.019653,791.232361 1562.233765,789.501709 
	C1564.320557,785.863892 1566.183105,782.617065 1568.104370,779.267761 
	C1582.002686,788.233704 1596.594482,791.653992 1612.400635,789.038086 
	C1615.460938,788.531677 1618.539795,787.478760 1621.322388,786.098022 
	C1626.251709,783.652100 1628.425171,779.360840 1628.377930,773.850525 
	C1628.331787,768.473999 1625.487305,764.678284 1620.793579,763.184021 
	C1612.904785,760.672729 1604.724487,759.087646 1596.695923,757.001343 
	C1591.075317,755.540833 1585.229736,754.519165 1579.959839,752.214966 
	C1563.588501,745.056885 1560.665161,724.073669 1574.092041,712.214050 
	C1579.924927,707.061890 1586.928711,704.754028 1594.469727,703.565613 
	C1608.777710,701.310669 1627.229614,704.800598 1638.157471,712.206177 
	C1636.398926,715.431885 1634.610474,718.712769 1632.627319,722.350464 
	C1620.569946,714.791626 1607.692261,712.907043 1593.686646,715.155518 
z"/>
<path fill="#FF8113" opacity="1.000000" stroke="none" 
	d="
M1291.251709,705.627930 
	C1303.005859,732.295898 1314.600220,758.613647 1326.554810,785.748901 
	C1327.553101,783.695923 1328.275146,782.318054 1328.905396,780.899475 
	C1339.436279,757.193604 1350.121948,733.553894 1360.337769,709.712891 
	C1362.386475,704.931519 1364.815186,702.872131 1369.868896,703.692688 
	C1371.632080,703.978943 1373.480835,703.738342 1376.002808,703.738342 
	C1374.103516,708.128174 1372.463013,712.015442 1370.747681,715.869446 
	C1358.915771,742.454468 1346.989868,768.998169 1335.319458,795.653809 
	C1333.755005,799.226807 1332.073486,800.960876 1328.016602,800.511597 
	C1323.794067,800.044067 1319.761963,801.509277 1317.215820,795.540955 
	C1304.623901,766.025146 1291.404663,736.776855 1278.411743,707.432007 
	C1277.964600,706.421997 1277.571167,705.388306 1276.582642,702.973450 
	C1282.090576,703.848145 1286.591187,704.562866 1291.251709,705.627930 
z"/>
<path fill="#FF8315" opacity="1.000000" stroke="none" 
	d="
M867.120422,784.775635 
	C874.516235,791.571411 882.533569,791.822205 894.606934,785.629028 
	C896.039612,788.514526 897.473206,791.402039 899.064087,794.606262 
	C888.779663,802.216370 877.722656,803.118591 866.271790,799.214294 
	C855.917358,795.683838 851.513428,787.377930 850.623657,776.968445 
	C850.298401,773.163330 850.345703,769.320496 850.342468,765.494751 
	C850.320679,739.856689 850.331116,714.218689 850.331055,688.580627 
	C850.331055,686.775208 850.331116,684.969727 850.331116,682.807373 
	C854.770020,682.807373 858.834106,682.807373 863.521667,682.807373 
	C863.521667,689.561768 863.521667,696.289673 863.521667,703.562866 
	C873.515747,703.562866 882.909302,703.562866 892.575439,703.562866 
	C892.575439,707.507690 892.575439,710.893372 892.575439,714.835938 
	C882.942383,714.835938 873.544800,714.835938 863.610107,714.835938 
	C863.610107,718.161865 863.609924,720.940857 863.610107,723.719910 
	C863.611084,739.369141 863.368530,755.024475 863.763428,770.663757 
	C863.880249,775.290833 865.794800,779.872559 867.120422,784.775635 
z"/>
<path fill="#FF8112" opacity="1.000000" stroke="none" 
	d="
M1515.893921,797.584106 
	C1514.944824,798.834412 1514.054688,800.218750 1513.040283,800.316711 
	C1509.921875,800.617798 1506.755981,800.426331 1503.220581,800.426331 
	C1503.220581,768.245911 1503.220581,736.386658 1503.220581,704.172119 
	C1506.886841,704.172119 1510.632446,704.172119 1514.890503,704.172119 
	C1514.890503,709.408386 1514.890503,714.800293 1514.890503,720.192200 
	C1523.858032,707.615601 1536.151733,703.041443 1551.143311,702.969055 
	C1551.143311,707.235046 1551.143311,711.242737 1551.143311,715.261963 
	C1547.164307,715.655151 1543.306030,715.660522 1539.623047,716.466736 
	C1525.273193,719.608154 1516.343262,731.235352 1516.032959,747.657715 
	C1515.721558,764.143372 1515.920654,780.638611 1515.893921,797.584106 
z"/>
<path fill="#E8EFF9" opacity="1.000000" stroke="none" 
	d="
M361.826172,768.000000 
	C361.826233,736.346863 362.383270,705.180481 361.638794,674.045166 
	C361.105591,651.745117 378.545532,636.412109 398.743317,636.752808 
	C439.047638,637.432800 479.371521,636.944031 519.687317,636.958252 
	C542.261047,636.966248 556.457153,651.073486 556.486694,673.763550 
	C556.553284,724.907898 556.551208,776.052490 556.487793,827.196838 
	C556.459656,849.880493 542.249573,864.033447 519.716431,864.041565 
	C479.234039,864.056213 438.751648,864.058044 398.269257,864.040405 
	C376.028290,864.030762 361.871460,849.824524 361.833527,827.474365 
	C361.800171,807.816284 361.826324,788.158142 361.826172,768.000000 
M545.725403,708.500000 
	C545.724487,696.669006 545.836182,684.836609 545.694885,673.007263 
	C545.506653,657.243408 536.019531,647.859070 520.343262,647.846008 
	C479.518280,647.812134 438.693237,647.812561 397.868256,647.847412 
	C382.088440,647.860901 372.693665,657.199829 372.678223,673.012512 
	C372.627747,724.668579 372.627960,776.324707 372.678131,827.980835 
	C372.693481,843.776184 382.109955,853.138611 397.874756,853.152283 
	C438.699707,853.187866 479.524780,853.179321 520.349670,853.132446 
	C522.988525,853.129456 525.721558,853.007202 528.249084,852.333557 
	C539.517517,849.330139 545.698242,840.326904 545.711365,826.976013 
	C545.749817,787.817322 545.725220,748.658691 545.725403,708.500000 
z"/>
<path fill="#FFFEFD" opacity="1.000000" stroke="none" 
	d="
M1054.511597,732.687073 
	C1063.877319,716.875122 1081.135620,710.526245 1098.242798,716.356873 
	C1113.980835,721.720947 1123.786621,738.517456 1121.638184,756.207520 
	C1119.879150,770.689087 1113.453247,781.990601 1099.296997,787.223145 
	C1086.041626,792.122559 1073.308228,790.505981 1062.246338,781.233582 
	C1049.499878,770.549072 1046.327393,750.365295 1054.511597,732.687073 
z"/>
<path fill="#FFFEFC" opacity="1.000000" stroke="none" 
	d="
M1433.604492,747.704956 
	C1420.630249,750.200928 1408.070801,752.597717 1395.517456,754.993347 
	C1391.691895,737.213257 1404.124878,718.409729 1421.766479,715.014587 
	C1442.151367,711.091553 1459.214844,722.133484 1462.795898,741.927979 
	C1453.210693,743.819153 1443.614868,745.712463 1433.604492,747.704956 
z"/>
<path fill="#FFFEFC" opacity="1.000000" stroke="none" 
	d="
M1695.363525,715.070312 
	C1716.958862,711.713196 1731.900879,721.241089 1736.925171,741.906921 
	C1714.507690,746.276001 1692.120605,750.639221 1669.745728,754.999939 
	C1665.811157,740.522583 1675.267334,719.605408 1695.363525,715.070312 
z"/>
<path fill="#025D98" opacity="1.000000" stroke="none" 
	d="
M545.725342,709.000000 
	C545.725220,748.658691 545.749817,787.817322 545.711365,826.976013 
	C545.698242,840.326904 539.517517,849.330139 528.249084,852.333557 
	C525.721558,853.007202 522.988525,853.129456 520.349670,853.132446 
	C479.524780,853.179321 438.699707,853.187866 397.874756,853.152283 
	C382.109955,853.138611 372.693481,843.776184 372.678131,827.980835 
	C372.627960,776.324707 372.627747,724.668579 372.678223,673.012512 
	C372.693665,657.199829 382.088440,647.860901 397.868256,647.847412 
	C438.693237,647.812561 479.518280,647.812134 520.343262,647.846008 
	C536.019531,647.859070 545.506653,657.243408 545.694885,673.007263 
	C545.836182,684.836609 545.724487,696.669006 545.725342,709.000000 
M419.500061,705.289062 
	C412.005554,705.295837 404.508942,705.200134 397.017456,705.354126 
	C393.456818,705.427307 390.797028,707.067871 390.979034,711.111633 
	C391.147369,714.850891 393.637299,716.190613 397.085999,716.188171 
	C398.418365,716.187256 399.750732,716.193787 401.083099,716.193787 
	C429.229492,716.194153 457.375854,716.194336 485.522247,716.194092 
	C498.512909,716.193970 511.503693,716.156982 524.494080,716.214172 
	C528.318298,716.230957 531.306335,715.107361 531.282227,710.804749 
	C531.258240,706.521851 528.146118,705.351868 524.425110,705.294983 
	C523.259583,705.277222 522.093567,705.289124 520.927734,705.289124 
	C487.451843,705.289062 453.975952,705.289185 419.500061,705.289062 
M480.500061,676.690186 
	C457.039734,676.690186 433.579376,676.687988 410.119049,676.691895 
	C405.460510,676.692688 400.798889,676.617737 396.144470,676.762817 
	C392.776184,676.867798 390.409729,678.959473 391.178375,682.145752 
	C391.655701,684.124207 394.282837,685.657471 396.114441,687.187805 
	C396.614075,687.605286 397.726807,687.306702 398.558167,687.306763 
	C440.320892,687.309631 482.083588,687.300659 523.846313,687.323425 
	C527.650513,687.325500 531.178162,686.826538 531.209473,682.030396 
	C531.240784,677.237244 527.766541,676.660889 523.928284,676.673157 
	C509.785675,676.718323 495.642822,676.690430 480.500061,676.690186 
M486.847015,763.035034 
	C490.348145,762.360168 492.267059,760.218018 491.612701,756.704346 
	C490.953125,753.162598 488.131409,752.192383 484.799011,752.204224 
	C473.965973,752.242737 463.132660,752.241150 452.299561,752.206177 
	C448.385773,752.193542 445.005829,753.166016 445.068512,757.775757 
	C445.131561,762.411926 448.578522,763.143372 452.466614,763.116516 
	C463.632568,763.039368 474.799408,763.083191 486.847015,763.035034 
z"/>
<path fill="#E4EDF7" opacity="1.000000" stroke="none" 
	d="
M420.000061,705.289185 
	C453.975952,705.289185 487.451843,705.289062 520.927734,705.289124 
	C522.093567,705.289124 523.259583,705.277222 524.425110,705.294983 
	C528.146118,705.351868 531.258240,706.521851 531.282227,710.804749 
	C531.306335,715.107361 528.318298,716.230957 524.494080,716.214172 
	C511.503693,716.156982 498.512909,716.193970 485.522247,716.194092 
	C457.375854,716.194336 429.229492,716.194153 401.083099,716.193787 
	C399.750732,716.193787 398.418365,716.187256 397.085999,716.188171 
	C393.637299,716.190613 391.147369,714.850891 390.979034,711.111633 
	C390.797028,707.067871 393.456818,705.427307 397.017456,705.354126 
	C404.508942,705.200134 412.005554,705.295837 420.000061,705.289185 
z"/>
<path fill="#ECF2FB" opacity="1.000000" stroke="none" 
	d="
M481.000061,676.690125 
	C495.642822,676.690430 509.785675,676.718323 523.928284,676.673157 
	C527.766541,676.660889 531.240784,677.237244 531.209473,682.030396 
	C531.178162,686.826538 527.650513,687.325500 523.846313,687.323425 
	C482.083588,687.300659 440.320892,687.309631 398.558167,687.306763 
	C397.726807,687.306702 396.614075,687.605286 396.114441,687.187805 
	C394.282837,685.657471 391.655701,684.124207 391.178375,682.145752 
	C390.409729,678.959473 392.776184,676.867798 396.144470,676.762817 
	C400.798889,676.617737 405.460510,676.692688 410.119049,676.691895 
	C433.579376,676.687988 457.039734,676.690186 481.000061,676.690125 
z"/>
<path fill="#E4EDF7" opacity="1.000000" stroke="none" 
	d="
M486.406433,763.057251 
	C474.799408,763.083191 463.632568,763.039368 452.466614,763.116516 
	C448.578522,763.143372 445.131561,762.411926 445.068512,757.775757 
	C445.005829,753.166016 448.385773,752.193542 452.299561,752.206177 
	C463.132660,752.241150 473.965973,752.242737 484.799011,752.204224 
	C488.131409,752.192383 490.953125,753.162598 491.612701,756.704346 
	C492.267059,760.218018 490.348145,762.360168 486.406433,763.057251 
z"/>
</svg>